<svg xmlns="http://www.w3.org/2000/svg" viewBox="0 0 72 52">
  <rect x="1" y="1" width="70" height="50" rx="9" fill="{{main_color}}" stroke="#4b5563" stroke-width="2"/>
  <rect x="14" y="7" width="44" height="38" rx="7" fill="#111827" opacity=".16"/>
  <path d="M16 11Q16 9 19 9H53Q56 9 56 12V38Q56 41 53 41H19Q16 41 16 38Z" fill="{{main_color}}" stroke="#6b7280" stroke-width="1.2"/>
  <path d="M18 12Q18 10 21 10H51Q54 10 54 12V22H18Z" fill="#fff" opacity=".2"/>
  <path d="M23 35L49 17M23 17L49 35" fill="none" stroke="#374151" stroke-width="1.8" stroke-linecap="round" opacity=".7"/>
  <path d="M24 0v7M48 0v7M24 45v7M48 45v7" stroke="#374151" stroke-width="2"/>
  <g fill="#f8fafc" stroke="#374151"><circle cx="24" cy="0" r="2"/><circle cx="48" cy="0" r="2"/><circle cx="24" cy="52" r="2"/><circle cx="48" cy="52" r="2"/></g>
</svg>
