<svg xmlns="http://www.w3.org/2000/svg" viewBox="0 0 78 52">
  <rect x="1" y="1" width="76" height="50" rx="9" fill="{{main_color}}" stroke="#4b5563" stroke-width="2"/>
  <rect x="15" y="7" width="48" height="38" rx="7" fill="#111827" opacity=".16"/>
  <path d="M17 11Q17 9 20 9H58Q61 9 61 12V38Q61 41 58 41H20Q17 41 17 38Z" fill="{{main_color}}" stroke="#6b7280" stroke-width="1.2"/>
  <path d="M19 12Q19 10 22 10H56Q59 10 59 12V22H19Z" fill="#fff" opacity=".2"/>
  <path d="M21 37L56 14" stroke="#374151" stroke-width="2.2" stroke-linecap="round" opacity=".75"/>
  <circle cx="22" cy="37" r="2.7" fill="#f8fafc" stroke="#374151"/>
  <path d="M19.5 0v7M39 0v7M58.5 0v7M19.5 45v7M39 45v7M58.5 45v7" stroke="#374151" stroke-width="2"/>
  <g fill="#f8fafc" stroke="#374151"><circle cx="19.5" cy="0" r="2"/><circle cx="39" cy="0" r="2"/><circle cx="58.5" cy="0" r="2"/><circle cx="19.5" cy="52" r="2"/><circle cx="39" cy="52" r="2"/><circle cx="58.5" cy="52" r="2"/></g>
</svg>
